<svg id="Lager_1" data-name="Lager 1" xmlns="http://www.w3.org/2000/svg" viewBox="0 0 747.49 747.49"><defs><style>.cls-1{fill:none;stroke:#000;stroke-miterlimit:10;stroke-width:18px;}.cls-2{font-size:114.03px;fill:#f96d15;font-family:Porkys, Porkys;}</style></defs><title>logo</title><circle class="cls-1" cx="373.75" cy="373.75" r="364.75"/><text class="cls-2" transform="translate(161.86 320.78) rotate(-69.72)">J</text><text class="cls-2" transform="matrix(0.56, -0.83, 0.83, 0.56, 174.64, 280.66)">A</text><text class="cls-2" transform="matrix(0.77, -0.64, 0.64, 0.77, 203.6, 232.59)">O</text><text class="cls-2" transform="translate(259 186.74) rotate(-23.27)">S</text><text class="cls-2" transform="translate(313.52 164.54) rotate(-11.6)"> </text><text class="cls-2" transform="translate(340.46 156.29) rotate(0.93)">B</text><text class="cls-2" transform="matrix(0.98, 0.22, -0.22, 0.98, 406.28, 158.88)">I</text><text class="cls-2" transform="translate(432.59 163.73) rotate(22.06)">L</text><text class="cls-2" transform="matrix(0.84, 0.54, -0.54, 0.84, 464.54, 174.56)">V</text><text class="cls-2" transform="translate(511.04 203.41) rotate(47.37)">Å</text><text class="cls-2" transform="translate(549.78 243.65) rotate(62.45)">R</text><text class="cls-2" transform="translate(578.38 293.91) rotate(79.09)">D</text><text class="cls-2" transform="matrix(0.53, 0.85, -0.85, 0.53, 101.52, 501.71)">K</text><text class="cls-2" transform="translate(156.64 581.42) rotate(39.66)">A</text><text class="cls-2" transform="translate(232.91 638.89) rotate(21.47)">R</text><text class="cls-2" transform="translate(312.93 666.6) rotate(7.04)">L</text><text class="cls-2" transform="translate(381.95 673.27) rotate(-7.61)">S</text><text class="cls-2" transform="translate(466.6 658.01) rotate(-23.06)">T</text><text class="cls-2" transform="translate(535.04 626.43) rotate(-39.12)">A</text><text class="cls-2" transform="translate(604.47 565.98) rotate(-57.54)">D</text><g id="Tools"><g id="Spray"><path d="M7281.82,7064.59c2.47.37,4.94.71,7.4,1.13,9.72,1.66,17,7.16,22.9,14.74a33.81,33.81,0,0,1,5.73,9.86,13.44,13.44,0,0,1,.41,1.47c.76,3.58-.66,5.63-4.31,5.67-4.28.05-8.57-.25-12.85-.37-1.38,0-2.75,0-4.19,0v16.68c0,2.08,0,4,1.38,6a67.78,67.78,0,0,1,5.26,10.29q13.17,28.56,26.29,57.14a4.72,4.72,0,0,1-1,5.89c-.33.33-.61.71-.93,1.05a4.81,4.81,0,0,0-1,5.6,185.31,185.31,0,0,1,10.88,41.28c.65,4.71,1,9.46,1.44,14.19.07.71.16,1.42.24,2.13v12.49c-.07.41-.16.82-.2,1.23-.28,3.09-.45,6.18-.83,9.26a110.08,110.08,0,0,1-7.64,29.46c-1.72,4.09-4.62,6.77-9,7.45-5.11.8-10.26,1.26-15.41,1.81-2.4.25-4.81.34-7.22.5h-17.08c-2.33-.16-4.66-.23-7-.49-6.58-.73-13.16-1.46-19.71-2.36a13.81,13.81,0,0,1-8.32-4.57c-5.56-6-8.89-13.09-11.14-20.79a108.92,108.92,0,0,1-4-30.09,185.2,185.2,0,0,1,7.3-53.57c.54-1.83,1.25-3.61,1.82-5.43,1.84-5.85,5.74-10.13,10.44-13.8a2.42,2.42,0,0,1,.56-.25,6.25,6.25,0,0,1-.32,1,2.2,2.2,0,0,1-.58.67c-6.09,4.4-8.92,10.8-11,17.72a177.2,177.2,0,0,0-6,29.54,171.77,171.77,0,0,0-1.09,31.41c.67,10.57,2.34,20.92,6.63,30.71a49.3,49.3,0,0,0,6.4,10.53,17.06,17.06,0,0,0,11.27,6.49,216.36,216.36,0,0,0,37.46,2.35,190.27,190.27,0,0,0,25-1.83,12.23,12.23,0,0,0,10.43-8.15,116.18,116.18,0,0,0,7.27-28.8,139.19,139.19,0,0,0,.2-31.54,186.14,186.14,0,0,0-11-46.21c-.31-.83-.59-1.68-.94-2.5a5,5,0,0,1,.95-5.56c.49-.59,1-1.19,1.5-1.73a3.69,3.69,0,0,0,.77-4.52c-3.75-8.32-7.3-16.73-11.14-25-5.57-12-11.32-23.94-17-35.89-1.12-2.33-2.31-4.62-3.49-7l-2,1,1.75-1.29-.09-.44a4.8,4.8,0,0,0-1.42,0c-1.08.36-2.08,1-3.18,1.25-2.26.53-4.56.87-6.84,1.3v.1l6.14-.37a30,30,0,0,1-3.75.46c-4.59,0-9.17-.14-13.75-.25a12.7,12.7,0,0,1-1.73-.27,2.46,2.46,0,0,0-.57-.42c-1.41-.43-2.84-.77-4.22-1.26a3.41,3.41,0,0,1-2.47-2.57,20.91,20.91,0,0,0-2.46.7c-.28.11-.43.56-.64.86-.36,0-.91-.06-1,.13a10.44,10.44,0,0,0-1.73,3,9,9,0,0,0,2,8.45,31.81,31.81,0,0,1,3.9,5.44c1.27,2.37.71,3.3-1.87,4.1-4,1.25-4.16,1.47-3.74,5.68a11.44,11.44,0,0,0,3.49,7.05c1,1.05,2.2,2,3.17,3.12,1.85,2.13,1.22,3.88-1.52,4.49-1.12.25-2.25.42-3.36.68s-1.39,1-.69,1.78a19.82,19.82,0,0,0,3.29,2.92,8.56,8.56,0,0,1,3.79,5.36,5,5,0,0,1-.54,3.93,33,33,0,0,1-10.5,10,1.8,1.8,0,0,1-.43.12l-.36-.41a11.78,11.78,0,0,0,1.29-.89c2.66-2.43,5.46-4.73,7.91-7.36,2.95-3.16,2.35-7.09-1.16-9.63-.89-.65-1.86-1.21-2.69-1.93a7.1,7.1,0,0,1-1.49-1.87,1.74,1.74,0,0,1,1.12-2.8c1.26-.37,2.58-.52,3.85-.84,1.84-.45,2.17-1.34,1-2.79a33.92,33.92,0,0,0-2.89-2.86,13.25,13.25,0,0,1-4.19-11.16,2.86,2.86,0,0,1,1.95-2.59c1-.4,2-.67,3-1,1.37-.49,1.69-.93,1-2.16a29.15,29.15,0,0,0-3.45-5.13,10.8,10.8,0,0,1-3-8.48c.36-3.62,2.14-5.77,5.74-6.48,1.15-.23,1.46-.66,1.44-1.82-.07-5,0-10,0-15,0-1.64.1-3.1,2.18-3.76-1.5-1.33-2.79-2.51-4.14-3.63a1,1,0,0,0-.88,0,27,27,0,0,1-11,3c-.77,0-1,.32-1.18,1.1a92.26,92.26,0,0,1-9,24.92,6.94,6.94,0,0,1-4.91,3.89c-2.14.4-3.22-.56-2.63-2.64a36.23,36.23,0,0,1,2.22-6.08c4.28-8.88,5.58-18.27,4.92-28,0-.5-.12-1-.2-1.51a1,1,0,0,0-.07-.26l-13.55.59c-1.75.07-2.1-.26-2.18-2-.12-2.8-.22-5.6-.35-8.4,0-.54-.14-1.08-.21-1.62v-4.07c.42-.46.77-1.18,1.27-1.31a28.6,28.6,0,0,1,5.95-1.11c3.18-.09,6.36.21,9.55.32a22.71,22.71,0,0,0,4,0c6.71-1,13.4-2.2,20.1-3.28,2.75-.45,5.52-.84,8.29-1.25Zm-15,34.94c-.16.35-.47.69-.47,1,0,4.71,0,9.42,0,14.13,0,3.59.21,3.87,3.73,4.87.16,0,.32.08.49.12a48.81,48.81,0,0,0,20,.28,19.92,19.92,0,0,0,4.43-1.49,2.19,2.19,0,0,0,1.1-1.63c.08-5.52,0-11,0-16.55,0-.25-.33-.5-.5-.75l.58-1.46-9.24,3.73,5.64-1.05c0,.59,0,1.19,0,1.78,0,4.84,0,9.68,0,14.52a4.35,4.35,0,0,1-.42,1.31l-.47-.12c0-5.64,0-11.29,0-16.92h-.63v16.21c0,1,0,1-1,1v-16.89l-.38,0a12.84,12.84,0,0,0-.15,1.39c0,4.92,0,9.85,0,14.78a4.57,4.57,0,0,1-.4,1.29l-.54-.13v-17.06l-.4-.06a7.07,7.07,0,0,0-.21,1.19c0,2.8,0,5.61,0,8.41,0,2.29,0,4.59,0,6.88,0,.32-.29.63-.44.94l-.52-.15v-17l-.43,0a10.32,10.32,0,0,0-.15,1.35c0,5,0,9.94,0,14.91a4,4,0,0,1-.37,1.18l-.59-.14v-17.2l-.46,0c0,.43-.11.86-.11,1.29,0,5,0,10,0,15a4.1,4.1,0,0,1-.38,1.17l-.49-.14v-17.09c-1.14-.23-1.41.18-1.41,1.12,0,4.89,0,9.77,0,14.66a4.84,4.84,0,0,1,0,1c0,.18-.29.31-.45.47-.12-.14-.32-.27-.34-.43a5.77,5.77,0,0,1,0-1c0-4.75,0-9.51,0-14.27,0-.42-.06-.85-.09-1.27l-.45,0a8.25,8.25,0,0,0-.21,1.29c0,4.85,0,9.69,0,14.53a6,6,0,0,1-.26,1.25l-.58-.08V7102.9l-.56-.08a7.43,7.43,0,0,0-.27,1.31c0,4.72,0,9.43,0,14.15,0,.43-.06.86-.09,1.3l-.41-.06q-.22-8.2-.41-16.42l-.39-.1a4.94,4.94,0,0,0-.3,1.22c0,4.67,0,9.34,0,14,0,.41-.09.81-.13,1.22h-.47a12.72,12.72,0,0,1-.14-1.37c0-4.67,0-9.34,0-14a4,4,0,0,0-.4-1.2l-.6.11v16.29h-.47c0-.47-.1-.94-.1-1.41v-14.27c0-1.09,0-1.09-1.07-1.4V7119l-.37,0a10,10,0,0,1-.18-1.34c0-4.92,0-9.85,0-14.78a6.55,6.55,0,0,0-.33-1.41c-.06-.27,0-.62-.2-.78-1.22-1.18-2.54-2.26-3.7-3.48-.9-.94-1.6-.64-2.38,0S7266.21,7098.78,7266.8,7099.53Zm-27.89-14.5c2.8,0,5.43,0,8.06,0,6.2-.06,11.79,1.44,16.41,5.92,3.45,3.34,7.15,6.41,10.67,9.66a4.71,4.71,0,0,0,4,1.49c5.88-.84,11.83-1.42,17-4.83a7.19,7.19,0,0,1,4.72-1.15c2.54.21,5.09.4,7.63.46a60.37,60.37,0,0,0,7.37-.12c2.28-.22,3.14-1.46,2.73-3.71a13.73,13.73,0,0,0-1.46-4.44,72.56,72.56,0,0,0-5.76-8.68c-4.65-5.75-10.35-10.2-17.62-12.2a57.33,57.33,0,0,0-24.62-1.17q-9.87,1.62-19.71,3.35a76.57,76.57,0,0,0-8.07,1.69c-2,.59-2,.8-1.85,2.91.06,1.1.08,2.21.13,3.31C7238.65,7079.93,7238.78,7082.34,7238.91,7085Zm2.77,1c.13,1.54.35,3.09.38,4.65.21,9.24-1.11,18.17-5.3,26.55a33.81,33.81,0,0,0-2,5.47c-.44,1.53.11,2,1.64,1.66a5.11,5.11,0,0,0,3.52-2.3c.75-1.22,1.53-2.44,2.16-3.74a106.31,106.31,0,0,0,6.93-19.23,33.59,33.59,0,0,0,.66-13.06Zm-3.52,0c-.06-.45-.14-.81-.16-1.18-.16-3.26-.16-6.54-.53-9.78-.29-2.48.23-4.18,2.84-4.81,0,0,0-.14.19-.54-2.61,0-5.11.09-7.6,0a18.78,18.78,0,0,0-5.88.75,2,2,0,0,0-1.67,2.27c.22,4.23.43,8.47.59,12.71,0,.82.3,1.12,1.13,1.08C7230.76,7086.29,7234.44,7086.15,7238.16,7086Zm12.57,8.45a23.29,23.29,0,0,0,11.5-3.19c-1.79-1-3.65.05-5.46-.25s-3.84-.4-5.85-.6Zm-.07-8.21c0,.79.12,1.46.1,2.12,0,.86.32,1.19,1.18,1.24,1.23.08,2.44.35,3.66.41,1.54.07,3.08,0,4.62,0A13,13,0,0,0,7250.66,7086.24Z" transform="translate(-6826.25 -6826.25)"/><path d="M7268.29,7100.26l3.63,1.05h-1.23v17l-.37,0a11.85,11.85,0,0,1-.15-1.32q0-7.45,0-14.89c0-.67,0-1.31-1.16-1.29v17h-.4c0-.43-.07-.86-.07-1.29,0-4.92,0-9.84,0-14.76A9.35,9.35,0,0,0,7268.29,7100.26Z" transform="translate(-6826.25 -6826.25)"/><path d="M7292.49,7100.79l1.59-.54c0,5.39,0,10.78,0,16.17a6.84,6.84,0,0,1-.33,1.46l-.48-.06c0-.44-.07-.87-.07-1.31q0-7.26,0-14.51C7293.14,7101.52,7293.42,7100.81,7292.49,7100.79Z" transform="translate(-6826.25 -6826.25)"/><path d="M7294,7100.29l1.58-.8c0,5.43,0,10.85,0,16.28a6.22,6.22,0,0,1-.35,1.43l-.49-.09v-1.36q0-7.18,0-14.37C7294.72,7100.91,7295,7100.16,7294,7100.29Z" transform="translate(-6826.25 -6826.25)"/><path d="M7271.86,7101.28l1.32.28c-.2.42-.57.83-.57,1.25,0,4.88,0,9.76,0,14.63,0,.44,0,.88-.07,1.32h-.38a12,12,0,0,1-.16-1.34c0-4.79,0-9.59,0-14.38C7272,7102.46,7271.9,7101.87,7271.86,7101.28Z" transform="translate(-6826.25 -6826.25)"/><path d="M7266.76,7099.49l1.58.8c-.93-.21-.78.44-.78,1v15.9l-.34,0a10.26,10.26,0,0,1-.13-1.23c0-5,0-9.93,0-14.9A9.9,9.9,0,0,0,7266.76,7099.49Z" transform="translate(-6826.25 -6826.25)"/></g><g id="Polisher"><path d="M7157.7,7172.51c-.16.22-.32.45-.46.68-5.87,9.26-11.68,18.56-17.6,27.79-4.6,7.17-9.21,14.35-14.07,21.34-2.53,3.64-5.95,6.33-10.71,6.67a1.94,1.94,0,0,0-1.34.94c-1.69,3.64-3.44,7.25-4.89,11-.85,2.2-2.14,3.18-4.45,3-1.34-.09-5.5,2.61-5.91,3.88-1,3-2.47,5.81-.91,9.23.55,1.21-.18,3.3-.87,4.72a7.11,7.11,0,0,1-5.94,3.78c-2,.19-2.52,1.13-2.7,2.85-.35,3.25-.25,6.7-1.35,9.69-1.23,3.36-2.41,6.49-1.77,10.13.09.52-.79,1.5-1.43,1.75a2.13,2.13,0,0,1-2-.62,18.14,18.14,0,0,1-1.76-4.12,42,42,0,0,1-.86-4.19c-.36-1.75-1.13-3.53-1-5.24.27-3.71,1.09-7.38,1.46-11.08a8.29,8.29,0,0,0-.59-4.53,10.39,10.39,0,0,1-1.48-7.21c.61-3.06,1.45-6.07,2.26-9.09,2.18-8.17,5-16.23,6.41-24.52,1.23-7,2.93-13.7,6.15-20,3.43-6.72,7.14-13.29,10.48-20.05,2.24-4.52,4-9.25,6.18-14.19-5.26-.38-6.54-3.62-7.14-7.39-1.5-9.4-3.19-18.78-4.32-28.23a44.7,44.7,0,0,1,.37-12.91c2-11.43,11.21-18.21,22.7-16.57a127.35,127.35,0,0,1,17.74,4.31c4.92,1.44,9.21,4,11.57,9.18,3.81-2.28,7.76-1.51,11.64-.72s8.14.54,11.05,4.51c1.55-3.36,2.88-6.47,4.45-9.45.43-.83,1.62-1.25,2.42-1.9a9.9,9.9,0,0,0,2.12-1.95c1.61-2.5,2.46-5.39,5.79-6.69,3.49-1.36,6.73-2.81,10.63-3.2s6.9,1.1,10.33,1.54c.13,0,.26.16.37.26,1.81,1.78,3.76,3.43,5.38,5.36,2.52,3,4.83,6.14,7.17,9.26a2.84,2.84,0,0,1,.52,1.69c-.06,2-.25,4-.36,6a3.45,3.45,0,0,0,.21,1.08c.82,3,1.76,5.95,2.4,9a4.1,4.1,0,0,1-.79,3c-1.31,1.67-1.79,3.23-.69,5.17a2.34,2.34,0,0,1,0,1.55c-.48,2.11-1,4.22-1.59,6.29a5,5,0,0,1-1.15,2.2c-2,2-2.41,4.5-2.08,7.17a5.81,5.81,0,0,1-1.81,4.91,10.06,10.06,0,0,0-2.23,4.25c-.6,2.54-1.53,4.58-4.18,5.52a3.18,3.18,0,0,0-1.75,1.36,45.13,45.13,0,0,0-2.71,6.66c-.62,2.09-1.51,3.58-3.83,4a4.26,4.26,0,0,0-1.71,1c-2.63,2-5.57,3.68-7.56,6.49-.36.52-1.36.6-2.06.86l-8.2,3.07a1.76,1.76,0,0,0-.71.56c-1.53,1.95-3.33,2.14-5.45,1a5.55,5.55,0,0,0-2-.39c-2.26-.27-4.42-.65-5.06-3.4-.1-.41-.77-.66-1.09-1.05-1.07-1.31-2.1-2.64-3.15-4-.53-.67-.93-1.61-1.63-1.94-1.6-.78-2-2.06-2.33-3.64-.4-2.16-1-4.29-1.55-6.42Zm18.43-49.25a3.54,3.54,0,0,1,2.55-3.41,1.39,1.39,0,0,0,.69-.79,37.76,37.76,0,0,1,2.14-5.33,6.59,6.59,0,0,1,3.06-2.43c2.29-.92,4.44-2.54,7.26-1.5a19.13,19.13,0,0,1,6.25,5.35c1.33,2.21,2.32,4.35,1.82,7-.07.36.32.83.55,1.22s.81.83.74,1.1c-1.06,3.65,1.43,7.28,0,10.93a6.23,6.23,0,0,0-.06,2.48c0,.35.34.68.43,1,.42,1.72-2.59,8.54-4.25,9.28a3.42,3.42,0,0,0-2.28,3.54,7.85,7.85,0,0,1-2.15,5.33,23.06,23.06,0,0,0-3.23,5.91,5.48,5.48,0,0,1-3.83,3.52,3.87,3.87,0,0,0-2.15,1.94c-1.24,3-3.94,4-6.62,4.66s-4-1.46-5.42-3.35a8.56,8.56,0,0,0-2.57-2.07c-1.41-.85-2.5-1.72-1.95-3.64a2,2,0,0,0-.25-1.7c-1.84-1.67-1.85-3.71-1.56-6-1.54,2.41-3.11,4.81-4.61,7.25a2.56,2.56,0,0,0-.43,1.72c.81,3.19-.33,6.77,2,9.7a3.76,3.76,0,0,1,.39,2.2c0,1.46.07,2.78,1.86,3.13a.53.53,0,0,1,.37.25c1.23,3.19,3.64,5.48,5.92,7.88.48.5.92,1.22,1.51,1.4a40.6,40.6,0,0,0,4.65,1,2,2,0,0,0,1.07-.13c3.68-1.62,7.34-3.28,11-4.92.35-.16.85-.21,1-.48,1.81-2.78,4.52-4.47,7.21-6.21.25-.16.39-.62.61-.65,3.85-.45,4.14-4.05,5.76-6.46a3.65,3.65,0,0,0,.64-1.68,4.86,4.86,0,0,1,3.39-4.45,4.15,4.15,0,0,0,2.91-3.93,8.16,8.16,0,0,1,2.68-5.37,4.72,4.72,0,0,0,1.26-3.12c-.07-3.14.21-6,2.53-8.48a6.78,6.78,0,0,0,1-2.72c.11-.35-.06-.78.05-1.13.81-2.56.26-5.46.87-7.72.83-3.07,1.91-5.79.86-9-.39-1.17-.35-2.53-.9-3.59a4.77,4.77,0,0,1-.44-4.09c.66-2.08.76-4.27-1.38-5.83-.36-.26-.85-.64-.88-1-.28-3.12-3.39-4.23-4.71-6.65-.84-1.56-2.5-2.67-3.71-4.05-1.09-1.22-2.67-1.18-3.93-1.77-3.42-1.61-6.72.55-10-.3-.34-.09-.94-.07-1.09.14-1.55,2.13-4.23,2.19-6.13,3.47-1.41,1-2.24,3-2.92,4.74-.59,1.51-1.36,2.58-2.93,2.82s-2,1.3-2.36,2.63a10.94,10.94,0,0,1-1.88,3.75c-2,2.48-3.1,7.41-1.66,10.31C7175.43,7124.3,7176.07,7123.82,7176.13,7123.26Zm-43.47,47.52a33.1,33.1,0,0,1-4.09,5.46c-4.46,4.62-10.38,3.75-13-2.09-1.42-3.14-2-6.66-3.06-10.42-.6.66-1.43,1.17-1.61,1.85-2.4,9.44-7.48,17.63-11.89,26.14-3.68,7.09-7.89,14-9.42,22a23.72,23.72,0,0,0-.5,6.76c.32,3.15,2.35,4.44,5.51,3.92a12.58,12.58,0,0,0,8.38-5.51c11-15.91,21.86-31.87,32.78-47.82.16-.25.26-.53.44-.89C7134.58,7169,7133.61,7169.24,7132.66,7170.78ZM7103.83,7227a70.13,70.13,0,0,0,11.35-1,12.25,12.25,0,0,0,6.55-3.66,167.64,167.64,0,0,0,10.65-15.07c6.37-9.83,12.55-19.79,18.81-29.7.2-.31.34-.66.64-1.25a13,13,0,0,1-10.53-4.53c-1.16-1.3-2.27-.68-3.24.75-10.31,15.16-20.72,30.26-31,45.42a28,28,0,0,1-9,8.88C7100,7226.91,7101.91,7227.12,7103.83,7227Zm18-81.16c7.52,2.49,15,5,22.58,7.38a2.74,2.74,0,0,0,2.44-.49c4-5.55,7.7-11.32,9.6-18,1.69-6,1.07-11.89-.73-17.75-.54-1.77-1.48-2.2-3.25-1.53a28.94,28.94,0,0,0-11.18,8.07c-2.25,2.47-4.51,4.95-6.54,7.6a16,16,0,0,1-6.84,5.11,48.33,48.33,0,0,0-5.75,2.78,8,8,0,0,0-4.17,5.5C7119.25,7145,7120.52,7145.44,7121.8,7145.86Zm47.55,15.56c1.14,2.18,1.89,4.35,4,5.81.23.16.3.54.53.73,1,.83,2.21,2.47,3,2.28,1.7-.43,3.78-1,4.37-3.18.51-1.92,1.88-2.76,3.68-3.35a4.69,4.69,0,0,0,2.16-1.94,83.39,83.39,0,0,0,4.36-7.34,9.63,9.63,0,0,0,1-3.89,5,5,0,0,1,2.8-4.34,6.71,6.71,0,0,0,1.91-2.49,11.93,11.93,0,0,0,1.09-2.7,10,10,0,0,0,.23-2.26,18.6,18.6,0,0,1,.2-4.24,3.33,3.33,0,0,0-.13-3.11,5.32,5.32,0,0,1-.24-3.62c.33-1.25.67-2.2-.34-3.32a3.25,3.25,0,0,1-.76-2.31,7.44,7.44,0,0,0-1.52-5.45,9.18,9.18,0,0,0-5.53-4.23c-2-.45-5.76,1.76-6.46,3.64-.53,1.43-.92,2.91-1.5,4.31-.25.6-.73,1.41-1.25,1.53-1.69.4-1.92,1.65-2.22,3a1.85,1.85,0,0,0,1.82,2.45c4.76-.17,6.83,1.24,7.48,5.9,1.1,7.87-1.4,14.76-6.78,20.48-2.69,2.86-5.34,2.86-8.69,1.05-.93-.51-2.21-.35-3.27-.48C7168.43,7156.93,7168,7158.8,7169.35,7161.42Zm-69.19-44.18a42.72,42.72,0,0,0-.3,12c1.08,9,2.68,17.91,4.08,26.86.11.67.27,1.34.42,2,.51,2.14,1.44,3.9,4,4.07,2.24.15,5-1.4,5.49-3.68a24.22,24.22,0,0,0,.53-8.08c-1.16-8.67-2.83-17.27-4-25.94a39.24,39.24,0,0,1,.07-10.44c.7-5.06,3.09-9.23,8.89-11.34C7109.46,7101.75,7101.79,7107.62,7100.16,7117.24Zm67.75,30c6.28-9,5.6-18.3,1.83-27.87a4,4,0,0,0-3.32-2.74c-2.63-.39-5.23-1-8.45-1.65,5.63,15.32-.21,27.78-9.05,39.64,3.58,2,8.13,1.74,10.29,6.12C7162.23,7156,7164.91,7151.51,7167.91,7147.23Zm-50.95,13-.7.22c.76.27,1.52.56,2.28.81,7.54,2.45,15.08,4.87,22.59,7.39a7.09,7.09,0,0,1,2.74,1.82c2.48,2.63,6.4,3.75,9.11,2.45s4.93-5.7,4.41-8.91c-.33-2.07-1.28-3.8-3.39-4.5q-18.21-6.06-36.46-12c-.13,0-.29,0-.19,0C7117.22,7151.84,7117.09,7156,7117,7160.23Zm-29.2,64.84c-1.3,4.44-2.56,8.69-3.8,12.94s-2.59,8.6-3.67,13a15.71,15.71,0,0,0-.34,5.38,3.41,3.41,0,0,0,3.58,3.19c2.07,0,2.84-1.35,3.22-3.17.44-2.08.92-4.16,1.54-6.19,1.24-4.11,4.12-6.44,8.37-6.51,2.4,0,3.43-1.28,4.12-3.14,1.27-3.4,2.44-6.84,3.78-10.61C7098.2,7229.73,7092.44,7229.62,7087.76,7225.07Zm38-91a34.64,34.64,0,0,0,4.1-2,4.26,4.26,0,0,0,2.16-4.42c-.67-7.71-1.33-8.61-8.62-10.92a43.45,43.45,0,0,0-4.86-1.28,4.51,4.51,0,0,0-5.67,3.87,4.83,4.83,0,0,0-.15,1.59c.94,6.69,1.92,13.37,2.89,20.06C7118.4,7137.35,7122.05,7135.67,7125.77,7134.07Zm-4.68-20.89a56.41,56.41,0,0,1,6.11,1.86c4.3,1.26,6.56,4.17,7.07,8.56.11.9.31,1.79.45,2.6,3.91-3.81,7.82-7.6,12.23-11.88-1-1.19-2.07-3-3.63-4.11a30.78,30.78,0,0,0-21.48-5.18,8.81,8.81,0,0,0-8.17,7.6A72.85,72.85,0,0,1,7121.09,7113.18Zm-3,59.87c1.79,4,5.42,4.49,8.42,1.33a60.87,60.87,0,0,0,4.38-5.75l-15.68-5.55C7116.29,7166.87,7116.81,7170.14,7118.11,7173.05Zm-25.46,88.76c2.06-1.34,2.35-2.91,1.75-5.29a16.78,16.78,0,0,1-.12-5.3,13.3,13.3,0,0,1,.91-3.05c.3-.91.64-1.81,1-2.78a6.1,6.1,0,0,0-6.18,4.23,50.92,50.92,0,0,0-1.69,6.13c-.84,3.54-.87,3.64-4.07,5.6C7087.19,7262.84,7089.86,7263.63,7092.65,7261.81Zm91.21-123.05a30.12,30.12,0,0,1-2.21,7.6,4.67,4.67,0,0,1-4.83,3.08c-1,0-2,1.59-3.16,2.56,2,1.76,3.78,1.6,5.12.15a29.57,29.57,0,0,0,4.2-5.86,20.11,20.11,0,0,0,2.46-11,8.86,8.86,0,0,0-.41-2.46c-.57-1.63-1.37-3.44-3.44-2.71-.74.26-.94,2.07-1.37,3.11C7183.38,7134.69,7184.31,7135.86,7183.86,7138.76Zm-15.19,12.16.48.63c.76-.29,1.78-.35,2.23-.88a26.31,26.31,0,0,0,6.2-20.11c-.1-1-1.07-1.82-1.63-2.73l-.91.45C7176.54,7136.82,7173.8,7144.2,7168.67,7150.92ZM7080.38,7276a4.31,4.31,0,0,0,.1,2.24,2.83,2.83,0,0,0,1.69,1.43c.41.09,1.35-.69,1.47-1.22.42-1.84.61-3.74.86-5.62.34-2.56.66-5.12,1-7.78l-3.44-1.51C7081.47,7267.84,7080.9,7271.9,7080.38,7276Zm25.48-36c1.53-3.43,2.91-6.93,4.36-10.43-2-.13-3.49.49-4.05,2.94-.64,2.8-1.57,5.53-2.57,9C7104.7,7240.79,7105.62,7240.54,7105.86,7240Zm71.91-93.67c2.37-1.65,3.83-6.24,2.9-9.73C7179.63,7140.11,7178.72,7143.16,7177.77,7146.32Z" transform="translate(-6826.25 -6826.25)"/><path d="M7092.38,7206.28a2.49,2.49,0,0,1-1.78,1c-.57-.09-1.49-1-1.45-1.41a10.85,10.85,0,0,1,1.08-4.14c.43-.79,1.63-1.17,2.49-1.73.58,1.1,1.17,2.19,1.6,3A25.59,25.59,0,0,1,7092.38,7206.28Zm.48-4.4-.86-.32c-.74,1.29-2.31,2.3-1,4.92Z" transform="translate(-6826.25 -6826.25)"/><path d="M7106.84,7209.63l-8.2,12c2.35-.54,8.72-9.62,8.79-11.64Z" transform="translate(-6826.25 -6826.25)"/><path d="M7110.86,7210.61a29.45,29.45,0,0,0-6.56,9.77A29.45,29.45,0,0,0,7110.86,7210.61Z" transform="translate(-6826.25 -6826.25)"/><path d="M7114.24,7210.26l-6.54,9.42,1.06.73,6.57-9.38Z" transform="translate(-6826.25 -6826.25)"/><path d="M7122.75,7136c-2.32,1.29-2.35,2.13-.71,9.42.32,1.42.91,2.39,2.89,2.07C7124.2,7143.63,7123.48,7139.85,7122.75,7136Z" transform="translate(-6826.25 -6826.25)"/><path d="M7120.35,7146.53c-.37-2.43-.75-4.85-1.21-7.75-2.21,2.05-.86,4-.79,5.77,0,.82.76,1.6,1.17,2.4Z" transform="translate(-6826.25 -6826.25)"/><path d="M7095.74,7143.49a6.06,6.06,0,0,0,0,.82c.54,3.53,1.06,7.07,1.68,10.58.08.43.76.74,1.16,1.11.31-.45.95-.94.89-1.34q-.72-5.43-1.69-10.81c-.06-.35-.71-.69-1.16-.82C7096.37,7143,7096,7143.34,7095.74,7143.49Z" transform="translate(-6826.25 -6826.25)"/><path d="M7133.85,7164a6.2,6.2,0,0,1,7.81-3.65,5.41,5.41,0,0,1,3.35,7,6.13,6.13,0,0,1-7.81,3.61A5.31,5.31,0,0,1,7133.85,7164Zm8.59,2.26a2.59,2.59,0,0,0-1.91-3.35,3.41,3.41,0,0,0-4.06,2.07,2.47,2.47,0,0,0,1.52,3.31A3.46,3.46,0,0,0,7142.44,7166.27Z" transform="translate(-6826.25 -6826.25)"/><path d="M7083.67,7237.57a3.34,3.34,0,0,1,3.95-2.23c1.61.43,2.48,1.45,2.11,3.19a3.5,3.5,0,0,1-4.26,2.33C7084.14,7240.28,7083.21,7239.31,7083.67,7237.57Zm4.58.76c.14-.13-.57-1.51-.69-1.48a6.79,6.79,0,0,0-2.44,1c-.19.14.23,1.09.5,2.2A16.27,16.27,0,0,0,7088.25,7238.33Z" transform="translate(-6826.25 -6826.25)"/></g></g></svg>